<svg version="1.1" xmlns="http://www.w3.org/2000/svg" xmlns:xlink="http://www.w3.org/1999/xlink" width="48" height="48"><defs><linearGradient x1="14.5407" y1="11.67152" x2="35.22707" y2="38.09625" gradientUnits="userSpaceOnUse" id="color-1"><stop offset="0.82" stop-color="#000000" stop-opacity="0.06"></stop><stop offset="1" stop-color="#000000" stop-opacity="0"></stop></linearGradient><filter id="dropshadow-base"><feColorMatrix type="matrix" values="0 0 0 0 0  0 0 0 0 0  0 0 0 0 0  0 0 0 .8 0"></feColorMatrix> <feOffset dx="0" dy="1"></feOffset> <feGaussianBlur stdDeviation="1"></feGaussianBlur> <feComposite in="SourceGraphic"></feComposite></filter><filter id="dropshadow-banner" x="-10%" y="-10%" width="120%" height="130%"><feColorMatrix type="matrix" values="0 0 0 0 0  0 0 0 0 0  0 0 0 0 0  0 0 0 .4 0"></feColorMatrix> <feOffset dx="0" dy="1"></feOffset> <feGaussianBlur stdDeviation="0.5"></feGaussianBlur> <feComposite in="SourceGraphic"></feComposite></filter></defs><g fill="none" fill-rule="nonzero" stroke="none" stroke-width="none" stroke-linecap="butt" stroke-linejoin="miter" stroke-miterlimit="10" stroke-dasharray="" stroke-dashoffset="0" font-family="none" font-weight="none" font-size="none" text-anchor="none" style="mix-blend-mode: normal"><path d="M10,46c-1.10457,0 -2,-0.89543 -2,-2v-40c0,-1.10457 0.89543,-2 2,-2h28c1.10457,0 2,0.89543 2,2v40c0,1.10457 -0.89543,2 -2,2z" id="base 1 13 1" fill-opacity="0" fill="#ffffff" stroke-width="1"></path><path d="M35.05886,22.50597c-0.69692,2.79516 -3.37507,4.57446 -6.16423,4.21412c0.00399,0.00396 0.00797,0.00793 0.01194,0.0119l1.76777,1.76777c1.34865,1.34865 1.97682,3.35077 1.48181,5.33616c-0.75064,3.01065 -3.79977,4.84276 -6.81043,4.09212c-0.05948,-0.01483 -0.1185,-0.03056 -0.17705,-0.04717l-8.8602,-2.20909l-1.76777,-1.76777l2.71831,-10.90254l0.69029,0.17211l-0.59951,-0.59951l2.71831,-10.90254l8.6661,2.1607c0.15482,0.02514 0.30986,0.05693 0.4648,0.09556l0,0c1.02526,0.25563 1.91385,0.77782 2.6103,1.47427l1.76777,1.76777c1.34865,1.34865 1.97682,3.35077 1.48181,5.33615zM28.11146,27.03754l-0.00431,-0.00431l-9.08037,-2.26399l-2.40681,9.6532l6.78093,1.69067c0.05855,0.01661 0.11756,0.03234 0.17705,0.04717c3.01065,0.75064 6.05978,-1.08147 6.81043,-4.09212c0.38539,-1.54571 0.08998,-3.10156 -0.69618,-4.35128c-0.47695,-0.29921 -1.00714,-0.53111 -1.58073,-0.67933zM30.50195,15.59999l-8.6661,-2.1607l-2.40681,9.6532l7.00619,1.74684l0.00481,-0.01928c0.01351,0.00348 0.02706,0.0069 0.04062,0.01028c3.01065,0.75064 6.05978,-1.08147 6.81043,-4.09212c0.38539,-1.54571 0.08999,-3.10155 -0.69618,-4.35128c-0.49007,-0.30744 -1.03635,-0.54382 -1.62817,-0.69138l0,0c-0.15493,-0.03862 -0.30996,-0.07042 -0.46478,-0.09555z" fill="url(#color-1)" stroke-width="1"></path><path d="M29.19897,13.92778c3.01065,0.75064 4.84276,3.79977 4.09212,6.81043c-0.75064,3.01065 -3.79977,4.84276 -6.81043,4.09212c-0.01357,-0.00338 -0.02711,-0.00681 -0.04063,-0.01029l-0.00481,0.01928l-9.08545,-2.26526l2.71831,-10.90255l8.66609,2.1607c0.15482,0.02514 0.30986,0.05693 0.46479,0.09556zM30.38838,32.06815c-0.75064,3.01065 -3.79977,4.84276 -6.81043,4.09212c-0.05948,-0.01483 -0.1185,-0.03056 -0.17705,-0.04716l-8.8602,-2.2091l2.71831,-10.90255l9.08545,2.26526l-0.00076,0.00305c2.98243,0.77069 4.79136,3.80358 4.04467,6.79838z" fill="none" stroke-width="0"></path><path d="M29.19897,13.92778c3.01065,0.75064 4.84276,3.79977 4.09212,6.81043c-0.75064,3.01065 -3.79977,4.84276 -6.81043,4.09212c-0.01357,-0.00338 -0.02711,-0.00681 -0.04063,-0.01029l-0.00481,0.01928l-9.08545,-2.26526l2.71831,-10.90255l8.66609,2.1607c0.15482,0.02514 0.30986,0.05693 0.46479,0.09556zM30.38838,32.06815c-0.75064,3.01065 -3.79977,4.84276 -6.81043,4.09212c-0.05948,-0.01483 -0.1185,-0.03056 -0.17705,-0.04716l-8.8602,-2.2091l2.71831,-10.90255l9.08545,2.26526l-0.00076,0.00305c2.98243,0.77069 4.79136,3.80358 4.04467,6.79838z" fill="#ffffff" stroke-width="0"></path><path d="M2,24c0,-12.15026 9.84974,-22 22,-22c12.15026,0 22,9.84974 22,22c0,12.15026 -9.84974,22 -22,22c-12.15026,0 -22,-9.84974 -22,-22z" id="base 1 9 1" fill="none" stroke-width="1"></path><path d="M2,24c0,-12.15026 9.84974,-22 22,-22c12.15026,0 22,9.84974 22,22c0,12.15026 -9.84974,22 -22,22c-12.15026,0 -22,-9.84974 -22,-22z" id="base 1 5 1" fill="none" stroke-width="1"></path><path d="M2,24c0,-12.15026 9.84974,-22 22,-22c12.15026,0 22,9.84974 22,22c0,12.15026 -9.84974,22 -22,22c-12.15026,0 -22,-9.84974 -22,-22z" id="base 1 1 1" fill="none" stroke-width="1"></path><g fill="#000000" stroke-width="1" font-family="Roboto, sans-serif" font-weight="400" font-size="14" text-anchor="start"></g><rect x="2" y="2" width="44" height="22" fill="none" stroke-width="1"></rect><path d="M2,24v-22h44v22z" fill="none" stroke-width="1"></path><path d="M2,24v-22h44v22z" fill="none" stroke-width="1"></path><path d="M2,24v-22h44v22z" fill="none" stroke-width="1"></path><path d="M2,24v-22h44v22z" fill="none" stroke-width="1"></path><g fill="#000000" stroke-width="1" font-family="Roboto, sans-serif" font-weight="400" font-size="14" text-anchor="start"></g><rect x="2" y="2" width="44" height="22" fill="none" stroke-width="1"></rect><path d="M2,24v-22h44v22z" fill="none" stroke-width="1"></path><path d="M2,24v-22h44v22z" fill="none" stroke-width="1"></path><path d="M2,24v-22h44v22z" fill="none" stroke-width="1"></path><path d="M2,24v-22h44v22z" fill="none" stroke-width="1"></path><g fill="#000000" stroke-width="1" font-family="Roboto, sans-serif" font-weight="400" font-size="14" text-anchor="start"></g><rect x="2" y="2" width="44" height="22" fill="none" stroke-width="1"></rect><path d="M2,24v-22h44v22z" fill="none" stroke-width="1"></path><path d="M2,24v-22h44v22z" fill="none" stroke-width="1"></path><path d="M2,24v-22h44v22z" fill="none" stroke-width="1"></path><path d="M2,24v-22h44v22z" fill="none" stroke-width="1"></path></g></svg>