<svg version="1.1" xmlns="http://www.w3.org/2000/svg" xmlns:xlink="http://www.w3.org/1999/xlink" width="48" height="48"><defs><linearGradient x1="10.27617" y1="6.11348" x2="59.64414" y2="63.80683" gradientUnits="userSpaceOnUse" id="color-1"><stop offset="0.28" stop-color="#000000" stop-opacity="0.15"></stop><stop offset="1" stop-color="#000000" stop-opacity="0"></stop></linearGradient><filter id="dropshadow-base"><feColorMatrix type="matrix" values="0 0 0 0 0  0 0 0 0 0  0 0 0 0 0  0 0 0 .8 0"></feColorMatrix> <feOffset dx="0" dy="1"></feOffset> <feGaussianBlur stdDeviation="1"></feGaussianBlur> <feComposite in="SourceGraphic"></feComposite></filter><filter id="dropshadow-banner" x="-10%" y="-10%" width="120%" height="130%"><feColorMatrix type="matrix" values="0 0 0 0 0  0 0 0 0 0  0 0 0 0 0  0 0 0 .4 0"></feColorMatrix> <feOffset dx="0" dy="1"></feOffset> <feGaussianBlur stdDeviation="0.5"></feGaussianBlur> <feComposite in="SourceGraphic"></feComposite></filter></defs><g fill="none" fill-rule="nonzero" stroke="none" stroke-width="none" stroke-linecap="butt" stroke-linejoin="miter" stroke-miterlimit="10" stroke-dasharray="" stroke-dashoffset="0" font-family="none" font-weight="none" font-size="none" text-anchor="none" style="mix-blend-mode: normal"><path d="M2,24c0,-12.15026 9.84974,-22 22,-22c12.15026,0 22,9.84974 22,22c0,12.15026 -9.84974,22 -22,22c-12.15026,0 -22,-9.84974 -22,-22z" id="base 1 13" fill-opacity="0" fill="#885959" stroke-width="1"></path><path d="M10.27617,38.36903l3.9438,-15.81773l1.00149,0.2497l-0.86979,-0.86979l3.9438,-15.81773l12.57303,3.13481c0.22462,0.03647 0.44956,0.0826 0.67434,0.13864l0.00001,0.00001c1.48748,0.37088 2.77666,1.12848 3.78709,2.13891l0,0l10.59056,10.59056c0.05265,0.62087 0.07951,1.2491 0.07951,1.88359c0,12.15026 -9.84974,22 -22,22c-2.5779,0 -5.05224,-0.44339 -7.35092,-1.25807z" fill="url(#color-1)" stroke-width="1"></path><path d="M31.54282,9.38693c4.36795,1.08905 7.02601,5.51282 5.93696,9.88077c-1.08905,4.36795 -5.51282,7.02601 -9.88077,5.93696c-0.01968,-0.00491 -0.03933,-0.00988 -0.05894,-0.01492l-0.00698,0.02798l-13.18144,-3.2865l3.9438,-15.81773l12.57302,3.13481c0.22462,0.03648 0.44955,0.0826 0.67434,0.13864zM33.26844,35.70551c-1.08905,4.36795 -5.51282,7.02601 -9.88077,5.93696c-0.0863,-0.02152 -0.17193,-0.04433 -0.25687,-0.06843l-12.85464,-3.20502l3.9438,-15.81773l13.18144,3.2865l-0.0011,0.00442c4.32699,1.11815 6.95145,5.51834 5.86813,9.86329z" fill="none" stroke-width="0"></path><g fill="#6cb4ee" stroke-width="1"><path d="M21.66206,15.32389c1.08905,-4.36795 5.51282,-7.02601 9.88077,-5.93696c4.36795,1.08905 7.02601,5.51282 5.93696,9.88077c-1.08905,4.36795 -5.51282,7.02601 -9.88077,5.93696c-4.36795,-1.08905 -7.02601,-5.51282 -5.93696,-9.88077z"></path><path d="M14.35166,21.93121l3.9438,-15.81773l13.18144,3.2865l-3.9438,15.81773z"></path><path d="M17.45071,31.76171c1.08905,-4.36795 5.51282,-7.02601 9.88077,-5.93696c4.36795,1.08905 7.02601,5.51282 5.93696,9.88077c-1.08905,4.36795 -5.51282,7.02601 -9.88077,5.93696c-4.36795,-1.08905 -7.02601,-5.51282 -5.93696,-9.88077z"></path><path d="M10.27617,38.36903l3.9438,-15.81773l13.18144,3.2865l-3.9438,15.81773z"></path></g><path d="M2,24c0,-12.15026 9.84974,-22 22,-22c12.15026,0 22,9.84974 22,22c0,12.15026 -9.84974,22 -22,22c-12.15026,0 -22,-9.84974 -22,-22z" id="base 1 9 1" fill="none" stroke-width="1"></path><path d="M2,24c0,-12.15026 9.84974,-22 22,-22c12.15026,0 22,9.84974 22,22c0,12.15026 -9.84974,22 -22,22c-12.15026,0 -22,-9.84974 -22,-22z" id="base 1 5 1" fill="none" stroke-width="1"></path><path d="M2,24c0,-12.15026 9.84974,-22 22,-22c12.15026,0 22,9.84974 22,22c0,12.15026 -9.84974,22 -22,22c-12.15026,0 -22,-9.84974 -22,-22z" id="base 1 1 1" fill="none" stroke-width="1"></path><g fill="#000000" stroke-width="1" font-family="Roboto, sans-serif" font-weight="400" font-size="14" text-anchor="start"></g><rect x="2" y="2" width="44" height="22" fill="none" stroke-width="1"></rect><path d="M2,24v-22h44v22z" fill="none" stroke-width="1"></path><path d="M2,24v-22h44v22z" fill="none" stroke-width="1"></path><path d="M2,24v-22h44v22z" fill="none" stroke-width="1"></path><path d="M2,24v-22h44v22z" fill="none" stroke-width="1"></path><g fill="#000000" stroke-width="1" font-family="Roboto, sans-serif" font-weight="400" font-size="14" text-anchor="start"></g><rect x="2" y="2" width="44" height="22" fill="none" stroke-width="1"></rect><path d="M2,24v-22h44v22z" fill="none" stroke-width="1"></path><path d="M2,24v-22h44v22z" fill="none" stroke-width="1"></path><path d="M2,24v-22h44v22z" fill="none" stroke-width="1"></path><path d="M2,24v-22h44v22z" fill="none" stroke-width="1"></path><g fill="#000000" stroke-width="1" font-family="Roboto, sans-serif" font-weight="400" font-size="14" text-anchor="start"></g><rect x="2" y="2" width="44" height="22" fill="none" stroke-width="1"></rect><path d="M2,24v-22h44v22z" fill="none" stroke-width="1"></path><path d="M2,24v-22h44v22z" fill="none" stroke-width="1"></path><path d="M2,24v-22h44v22z" fill="none" stroke-width="1"></path><path d="M2,24v-22h44v22z" fill="none" stroke-width="1"></path></g></svg>